<svg width="43" height="44" viewBox="0 0 43 44" fill="none" xmlns="http://www.w3.org/2000/svg">
<path d="M8.27033 34.5416C7.44497 34.5416 6.75638 34.2657 6.20454 33.7139C5.65271 33.1621 5.37619 32.4729 5.375 31.6463V12.3536C5.375 11.5283 5.65151 10.8397 6.20454 10.2879C6.75757 9.73602 7.44557 9.45951 8.26854 9.45831H34.7315C35.5556 9.45831 36.2436 9.73483 36.7955 10.2879C37.3473 10.8409 37.6238 11.5295 37.625 12.3536V31.6481C37.625 32.4723 37.3485 33.1609 36.7955 33.7139C36.2424 34.2669 35.5544 34.5428 34.7315 34.5416H8.27033ZM8.27033 32.75H26.875V25.7911H7.16667V31.6481C7.16667 31.9228 7.28133 32.1755 7.51067 32.406C7.74 32.6365 7.99262 32.7512 8.26854 32.75M28.6667 32.75H34.7315C35.0062 32.75 35.2588 32.6353 35.4893 32.406C35.7199 32.1766 35.8345 31.9234 35.8333 31.6463V17.0389H28.6667V32.75ZM7.16667 23.9995H26.875V17.0371H7.16667V23.9995Z" fill="black"/>
</svg>
