<svg xmlns="http://www.w3.org/2000/svg" xmlns:xlink="http://www.w3.org/1999/xlink" width="225" zoomAndPan="magnify" viewBox="0 0 168.75 168.749997" height="225" preserveAspectRatio="xMidYMid meet" version="1.2"><defs><clipPath id="689d4ddfd5"><path d="M 8 40 L 168.5 40 L 168.5 136.753906 L 8 136.753906 Z M 8 40 "/></clipPath><clipPath id="eaef3bc927"><path d="M 8 40 L 168.5 40 L 168.5 136.753906 L 8 136.753906 Z M 8 40 "/></clipPath></defs><g id="421e61d9a3"><path style=" stroke:none;fill-rule:nonzero;fill:#000000;fill-opacity:1;" d="M 70.765625 42.34375 L 70.765625 61.058594 C 59.144531 66.273438 51.558594 73.746094 47.996094 83.472656 C 69.191406 83.472656 79.789062 91.855469 79.789062 108.605469 C 79.789062 125.355469 68.109375 134.46875 44.75 134.46875 C 21.390625 134.46875 10.304688 124.21875 10.304688 103.710938 C 10.304688 71.828125 30.457031 51.371094 70.761719 42.34375 Z M 157.394531 42.34375 L 157.394531 61.058594 C 145.777344 66.273438 138.257812 73.746094 134.824219 83.472656 C 155.886719 83.472656 166.417969 91.855469 166.417969 108.605469 C 166.417969 125.355469 154.738281 134.46875 131.378906 134.46875 C 108.019531 134.46875 96.933594 124.21875 96.933594 103.710938 C 96.933594 71.925781 117.085938 51.472656 157.394531 42.34375 Z M 157.394531 42.34375 "/><g clip-rule="nonzero" clip-path="url(#689d4ddfd5)"><path style=" stroke:none;fill-rule:nonzero;fill:#000000;fill-opacity:1;" d="M 131.378906 136.550781 C 125.464844 136.550781 120.195312 135.875 115.714844 134.542969 C 111.136719 133.179688 107.246094 131.089844 104.160156 128.335938 C 97.984375 122.820312 94.851562 114.535156 94.851562 103.710938 C 94.851562 95.546875 96.171875 87.988281 98.769531 81.25 C 101.382812 74.480469 105.351562 68.363281 110.566406 63.070312 C 115.746094 57.8125 122.296875 53.226562 130.027344 49.445312 C 137.695312 45.691406 146.746094 42.621094 156.933594 40.3125 C 157.550781 40.175781 158.199219 40.324219 158.695312 40.71875 C 159.1875 41.113281 159.476562 41.710938 159.476562 42.34375 L 159.476562 61.058594 C 159.476562 61.878906 158.996094 62.621094 158.246094 62.957031 C 148.34375 67.398438 141.511719 73.613281 137.890625 81.453125 C 142.078125 81.625 145.867188 82.152344 149.183594 83.03125 C 153.390625 84.148438 156.96875 85.863281 159.816406 88.128906 C 165.578125 92.710938 168.5 99.601562 168.5 108.605469 C 168.5 117.605469 165.269531 124.972656 158.894531 129.675781 C 155.769531 131.988281 151.835938 133.734375 147.207031 134.871094 C 142.6875 135.984375 137.359375 136.550781 131.382812 136.550781 Z M 155.3125 44.972656 C 117.4375 54.1875 99.015625 73.421875 99.015625 103.714844 C 99.015625 113.300781 101.679688 120.539062 106.933594 125.230469 C 112.253906 129.980469 120.480469 132.390625 131.378906 132.390625 C 142.28125 132.390625 150.976562 130.351562 156.421875 126.332031 C 161.75 122.398438 164.335938 116.601562 164.335938 108.605469 C 164.335938 100.613281 162.011719 95.195312 157.222656 91.390625 C 152.359375 87.519531 144.824219 85.558594 134.824219 85.558594 C 134.148438 85.558594 133.515625 85.230469 133.125 84.679688 C 132.734375 84.128906 132.636719 83.421875 132.863281 82.785156 C 134.675781 77.644531 137.605469 73.039062 141.574219 69.097656 C 145.226562 65.472656 149.84375 62.324219 155.3125 59.730469 Z M 44.75 136.550781 C 38.835938 136.550781 33.5625 135.875 29.085938 134.542969 C 24.503906 133.179688 20.617188 131.089844 17.527344 128.335938 C 11.351562 122.820312 8.222656 114.535156 8.222656 103.710938 C 8.222656 95.523438 9.539062 87.945312 12.140625 81.195312 C 14.75 74.414062 18.71875 68.292969 23.933594 62.996094 C 29.113281 57.738281 35.664062 53.160156 43.398438 49.386719 C 51.066406 45.648438 60.121094 42.597656 70.308594 40.3125 C 70.925781 40.175781 71.570312 40.324219 72.0625 40.71875 C 72.558594 41.113281 72.84375 41.710938 72.84375 42.34375 L 72.84375 61.058594 C 72.84375 61.878906 72.363281 62.625 71.613281 62.960938 C 61.710938 67.402344 54.824219 73.617188 51.097656 81.453125 C 55.304688 81.625 59.105469 82.15625 62.433594 83.03125 C 66.667969 84.148438 70.265625 85.863281 73.128906 88.125 C 78.925781 92.710938 81.867188 99.601562 81.867188 108.605469 C 81.867188 117.609375 78.636719 124.972656 72.261719 129.679688 C 69.132812 131.988281 65.203125 133.734375 60.574219 134.875 C 56.050781 135.988281 50.726562 136.550781 44.746094 136.550781 Z M 68.683594 44.964844 C 30.808594 54.089844 12.386719 73.324219 12.386719 103.714844 C 12.386719 113.300781 15.046875 120.539062 20.300781 125.230469 C 25.621094 129.980469 33.847656 132.390625 44.75 132.390625 C 55.652344 132.390625 64.347656 130.351562 69.792969 126.332031 C 75.117188 122.398438 77.707031 116.601562 77.707031 108.605469 C 77.707031 100.613281 75.367188 95.199219 70.550781 91.394531 C 65.652344 87.519531 58.0625 85.558594 48 85.558594 C 47.316406 85.558594 46.679688 85.226562 46.292969 84.667969 C 45.902344 84.109375 45.808594 83.398438 46.042969 82.761719 C 47.921875 77.625 50.902344 73.027344 54.898438 69.09375 C 58.582031 65.464844 63.214844 62.320312 68.683594 59.730469 Z M 68.683594 44.964844 "/></g><path style=" stroke:none;fill-rule:nonzero;fill:#000000;fill-opacity:1;" d="M 70.765625 42.34375 L 70.765625 61.058594 C 59.144531 66.273438 51.558594 73.746094 47.996094 83.472656 C 69.191406 83.472656 79.789062 91.855469 79.789062 108.605469 C 79.789062 125.355469 68.109375 134.46875 44.75 134.46875 C 21.390625 134.46875 10.304688 124.21875 10.304688 103.710938 C 10.304688 71.828125 30.457031 51.371094 70.761719 42.34375 Z M 157.394531 42.34375 L 157.394531 61.058594 C 145.777344 66.273438 138.257812 73.746094 134.824219 83.472656 C 155.886719 83.472656 166.417969 91.855469 166.417969 108.605469 C 166.417969 125.355469 154.738281 134.46875 131.378906 134.46875 C 108.019531 134.46875 96.933594 124.21875 96.933594 103.710938 C 96.933594 71.925781 117.085938 51.472656 157.394531 42.34375 Z M 157.394531 42.34375 "/><g clip-rule="nonzero" clip-path="url(#eaef3bc927)"><path style=" stroke:none;fill-rule:nonzero;fill:#000000;fill-opacity:1;" d="M 131.378906 136.550781 C 125.464844 136.550781 120.195312 135.875 115.714844 134.542969 C 111.136719 133.179688 107.246094 131.089844 104.160156 128.335938 C 97.984375 122.820312 94.851562 114.535156 94.851562 103.710938 C 94.851562 95.546875 96.171875 87.988281 98.769531 81.25 C 101.382812 74.480469 105.351562 68.363281 110.566406 63.070312 C 115.746094 57.8125 122.296875 53.226562 130.027344 49.445312 C 137.695312 45.691406 146.746094 42.621094 156.933594 40.3125 C 157.550781 40.175781 158.199219 40.324219 158.695312 40.71875 C 159.1875 41.113281 159.476562 41.710938 159.476562 42.34375 L 159.476562 61.058594 C 159.476562 61.878906 158.996094 62.621094 158.246094 62.957031 C 148.34375 67.398438 141.511719 73.613281 137.890625 81.453125 C 142.078125 81.625 145.867188 82.152344 149.183594 83.03125 C 153.390625 84.148438 156.96875 85.863281 159.816406 88.128906 C 165.578125 92.710938 168.5 99.601562 168.5 108.605469 C 168.5 117.605469 165.269531 124.972656 158.894531 129.675781 C 155.769531 131.988281 151.835938 133.734375 147.207031 134.871094 C 142.6875 135.984375 137.359375 136.550781 131.382812 136.550781 Z M 155.3125 44.972656 C 117.4375 54.1875 99.015625 73.421875 99.015625 103.714844 C 99.015625 113.300781 101.679688 120.539062 106.933594 125.230469 C 112.253906 129.980469 120.480469 132.390625 131.378906 132.390625 C 142.28125 132.390625 150.976562 130.351562 156.421875 126.332031 C 161.75 122.398438 164.335938 116.601562 164.335938 108.605469 C 164.335938 100.613281 162.011719 95.195312 157.222656 91.390625 C 152.359375 87.519531 144.824219 85.558594 134.824219 85.558594 C 134.148438 85.558594 133.515625 85.230469 133.125 84.679688 C 132.734375 84.128906 132.636719 83.421875 132.863281 82.785156 C 134.675781 77.644531 137.605469 73.039062 141.574219 69.097656 C 145.226562 65.472656 149.84375 62.324219 155.3125 59.730469 Z M 44.75 136.550781 C 38.835938 136.550781 33.5625 135.875 29.085938 134.542969 C 24.503906 133.179688 20.617188 131.089844 17.527344 128.335938 C 11.351562 122.820312 8.222656 114.535156 8.222656 103.710938 C 8.222656 95.523438 9.539062 87.945312 12.140625 81.195312 C 14.75 74.414062 18.71875 68.292969 23.933594 62.996094 C 29.113281 57.738281 35.664062 53.160156 43.398438 49.386719 C 51.066406 45.648438 60.121094 42.597656 70.308594 40.3125 C 70.925781 40.175781 71.570312 40.324219 72.0625 40.71875 C 72.558594 41.113281 72.84375 41.710938 72.84375 42.34375 L 72.84375 61.058594 C 72.84375 61.878906 72.363281 62.625 71.613281 62.960938 C 61.710938 67.402344 54.824219 73.617188 51.097656 81.453125 C 55.304688 81.625 59.105469 82.15625 62.433594 83.03125 C 66.667969 84.148438 70.265625 85.863281 73.128906 88.125 C 78.925781 92.710938 81.867188 99.601562 81.867188 108.605469 C 81.867188 117.609375 78.636719 124.972656 72.261719 129.679688 C 69.132812 131.988281 65.203125 133.734375 60.574219 134.875 C 56.050781 135.988281 50.726562 136.550781 44.746094 136.550781 Z M 68.683594 44.964844 C 30.808594 54.089844 12.386719 73.324219 12.386719 103.714844 C 12.386719 113.300781 15.046875 120.539062 20.300781 125.230469 C 25.621094 129.980469 33.847656 132.390625 44.75 132.390625 C 55.652344 132.390625 64.347656 130.351562 69.792969 126.332031 C 75.117188 122.398438 77.707031 116.601562 77.707031 108.605469 C 77.707031 100.613281 75.367188 95.199219 70.550781 91.394531 C 65.652344 87.519531 58.0625 85.558594 48 85.558594 C 47.316406 85.558594 46.679688 85.226562 46.292969 84.667969 C 45.902344 84.109375 45.808594 83.398438 46.042969 82.761719 C 47.921875 77.625 50.902344 73.027344 54.898438 69.09375 C 58.582031 65.464844 63.214844 62.320312 68.683594 59.730469 Z M 68.683594 44.964844 "/></g><path style=" stroke:none;fill-rule:nonzero;fill:#000000;fill-opacity:1;" d="M 62.542969 34.121094 L 62.542969 52.839844 C 50.925781 58.050781 43.339844 65.523438 39.773438 75.253906 C 60.96875 75.253906 71.566406 83.632812 71.566406 100.382812 C 71.566406 117.132812 59.886719 126.246094 36.527344 126.246094 C 13.167969 126.246094 2.082031 115.996094 2.082031 95.492188 C 2.082031 63.605469 22.234375 43.152344 62.542969 34.121094 Z M 149.171875 34.121094 L 149.171875 52.839844 C 137.554688 58.050781 130.035156 65.523438 126.601562 75.253906 C 147.664062 75.253906 158.195312 83.632812 158.195312 100.382812 C 158.195312 117.132812 146.515625 126.246094 123.15625 126.246094 C 99.796875 126.246094 88.710938 115.996094 88.710938 95.488281 C 88.710938 63.703125 108.863281 43.25 149.171875 34.121094 Z M 149.171875 34.121094 "/><path style=" stroke:none;fill-rule:nonzero;fill:#ffd21f;fill-opacity:1;" d="M 62.542969 34.121094 L 62.542969 52.839844 C 50.925781 58.050781 43.339844 65.523438 39.773438 75.253906 C 60.96875 75.253906 71.566406 83.632812 71.566406 100.382812 C 71.566406 117.132812 59.886719 126.246094 36.527344 126.246094 C 13.167969 126.246094 2.082031 115.996094 2.082031 95.492188 C 2.082031 63.605469 22.234375 43.152344 62.542969 34.121094 Z M 149.171875 34.121094 L 149.171875 52.839844 C 137.554688 58.050781 130.035156 65.523438 126.601562 75.253906 C 147.664062 75.253906 158.195312 83.632812 158.195312 100.382812 C 158.195312 117.132812 146.515625 126.246094 123.15625 126.246094 C 99.796875 126.246094 88.710938 115.996094 88.710938 95.488281 C 88.710938 63.703125 108.863281 43.25 149.171875 34.121094 Z M 149.171875 34.121094 "/><path style=" stroke:none;fill-rule:nonzero;fill:#000000;fill-opacity:1;" d="M 123.160156 128.328125 C 117.242188 128.328125 111.972656 127.652344 107.496094 126.320312 C 102.914062 124.957031 99.023438 122.867188 95.9375 120.109375 C 89.761719 114.597656 86.628906 106.3125 86.628906 95.488281 C 86.628906 87.324219 87.949219 79.765625 90.546875 73.027344 C 93.160156 66.257812 97.128906 60.140625 102.34375 54.847656 C 107.523438 49.589844 114.074219 45.003906 121.804688 41.222656 C 129.472656 37.46875 138.527344 34.398438 148.714844 32.089844 C 149.328125 31.949219 149.976562 32.101562 150.472656 32.496094 C 150.96875 32.890625 151.253906 33.488281 151.253906 34.121094 L 151.253906 52.835938 C 151.253906 53.65625 150.773438 54.398438 150.027344 54.734375 C 140.125 59.175781 133.289062 65.390625 129.667969 73.230469 C 133.859375 73.402344 137.644531 73.929688 140.960938 74.808594 C 145.167969 75.925781 148.746094 77.640625 151.59375 79.90625 C 157.359375 84.488281 160.277344 91.378906 160.277344 100.378906 C 160.277344 109.382812 157.046875 116.75 150.675781 121.453125 C 147.546875 123.761719 143.613281 125.511719 138.984375 126.648438 C 134.464844 127.761719 129.140625 128.328125 123.160156 128.328125 Z M 147.089844 36.75 C 109.214844 45.964844 90.792969 65.199219 90.792969 95.492188 C 90.792969 105.078125 93.457031 112.316406 98.710938 117.007812 C 104.03125 121.757812 112.257812 124.167969 123.160156 124.167969 C 134.0625 124.167969 142.753906 122.128906 148.199219 118.109375 C 153.527344 114.175781 156.117188 108.378906 156.117188 100.382812 C 156.117188 92.390625 153.789062 86.972656 149.003906 83.164062 C 144.136719 79.296875 136.601562 77.335938 126.605469 77.335938 C 125.929688 77.335938 125.292969 77.007812 124.902344 76.457031 C 124.515625 75.90625 124.414062 75.199219 124.640625 74.5625 C 126.453125 69.421875 129.382812 64.816406 133.351562 60.875 C 137.003906 57.246094 141.621094 54.101562 147.089844 51.507812 Z M 36.527344 128.328125 C 30.613281 128.328125 25.339844 127.652344 20.863281 126.320312 C 16.28125 124.957031 12.394531 122.867188 9.304688 120.109375 C 3.132812 114.597656 0 106.316406 0 95.492188 C 0 87.300781 1.320312 79.722656 3.917969 72.972656 C 6.527344 66.191406 10.496094 60.070312 15.714844 54.773438 C 20.894531 49.515625 27.441406 44.9375 35.179688 41.167969 C 42.84375 37.425781 51.898438 34.375 62.085938 32.089844 C 62.703125 31.953125 63.347656 32.101562 63.84375 32.496094 C 64.335938 32.894531 64.621094 33.492188 64.621094 34.121094 L 64.621094 52.839844 C 64.621094 53.65625 64.140625 54.402344 63.394531 54.738281 C 53.492188 59.179688 46.601562 65.394531 42.875 73.234375 C 47.082031 73.40625 50.882812 73.933594 54.210938 74.8125 C 58.445312 75.925781 62.042969 77.640625 64.90625 79.902344 C 70.707031 84.488281 73.644531 91.378906 73.644531 100.382812 C 73.644531 109.386719 70.414062 116.753906 64.042969 121.457031 C 60.914062 123.765625 56.980469 125.515625 52.351562 126.652344 C 47.832031 127.765625 42.507812 128.328125 36.527344 128.328125 Z M 60.460938 36.742188 C 22.585938 45.867188 4.164062 65.101562 4.164062 95.492188 C 4.164062 105.078125 6.824219 112.316406 12.078125 117.007812 C 17.398438 121.757812 25.625 124.167969 36.527344 124.167969 C 47.429688 124.167969 56.125 122.128906 61.570312 118.109375 C 66.894531 114.175781 69.484375 108.378906 69.484375 100.382812 C 69.484375 92.390625 67.144531 86.976562 62.328125 83.171875 C 57.429688 79.296875 49.839844 77.335938 39.773438 77.335938 C 39.09375 77.335938 38.457031 77.003906 38.070312 76.445312 C 37.679688 75.886719 37.585938 75.175781 37.820312 74.535156 C 39.699219 69.402344 42.679688 64.804688 46.675781 60.867188 C 50.359375 57.242188 54.992188 54.097656 60.460938 51.507812 Z M 60.460938 36.742188 "/></g></svg>