<svg width="43" height="44" viewBox="0 0 43 44" fill="none" xmlns="http://www.w3.org/2000/svg">
<g clip-path="url(#clip0_42_286)">
<path d="M40.0497 22.9078L31.7722 19.0975V8.18025C31.7684 7.95121 31.6988 7.72809 31.5718 7.53749C31.4447 7.34689 31.2655 7.19685 31.0555 7.10525L22.0972 2.98442C21.94 2.91165 21.7688 2.87396 21.5955 2.87396C21.4223 2.87396 21.2511 2.91165 21.0939 2.98442L12.1355 7.10525C11.9282 7.20121 11.7527 7.3546 11.6299 7.54726C11.5071 7.73991 11.4422 7.96374 11.4427 8.1922V19.1094L3.20108 22.9078C2.99375 23.0037 2.81829 23.1571 2.69549 23.3498C2.5727 23.5424 2.50774 23.7662 2.5083 23.9947V35.6764C2.50774 35.9048 2.5727 36.1286 2.69549 36.3213C2.81829 36.514 2.99375 36.6674 3.20108 36.7633L12.1594 40.8841C12.3166 40.9569 12.4878 40.9946 12.6611 40.9946C12.8343 40.9946 13.0055 40.9569 13.1627 40.8841L21.6194 36.9903L30.0761 40.8841C30.2333 40.9569 30.4045 40.9946 30.5777 40.9946C30.751 40.9946 30.9222 40.9569 31.0794 40.8841L40.0377 36.7633C40.2451 36.6674 40.4205 36.514 40.5433 36.3213C40.6661 36.1286 40.7311 35.9048 40.7305 35.6764V23.9947C40.7321 23.7675 40.669 23.5446 40.5484 23.3521C40.4278 23.1596 40.2548 23.0054 40.0497 22.9078ZM30.5897 26.7778L24.4861 23.9947L30.5897 21.1878L36.6933 23.9947L30.5897 26.7778ZM29.3952 19.0855L21.703 22.6689V13.4836C21.847 13.4772 21.9886 13.4448 22.1211 13.388L29.3833 10.0555V19.1094L29.3952 19.0855ZM21.6194 5.37331L27.723 8.18025L21.6194 10.9872L15.5277 8.18025L21.6194 5.37331ZM12.6611 21.1758L18.7647 23.9828L12.6611 26.7778L6.55747 23.9947L12.6611 21.1758ZM20.425 34.9L12.6611 38.4833V29.298C12.8278 29.2881 12.9905 29.2434 13.1389 29.1666L20.4011 25.8222L20.425 34.9ZM38.3416 34.9L30.6255 38.4833V29.298C30.7759 29.2819 30.9218 29.2373 31.0555 29.1666L38.3178 25.8222L38.3416 34.9Z" fill="black"/>
</g>
<defs>
<clipPath id="clip0_42_286">
<rect width="43" height="43" fill="white" transform="translate(0 0.5)"/>
</clipPath>
</defs>
</svg>
