<svg width="48" height="48" viewBox="0 0 48 48" fill="none" xmlns="http://www.w3.org/2000/svg">
<path d="M30 30C33.3137 30 36 27.3137 36 24C36 20.6863 33.3137 18 30 18C26.6863 18 24 20.6863 24 24C24 27.3137 26.6863 30 30 30Z" stroke="black" stroke-width="3" stroke-linecap="round" stroke-linejoin="round"/>
<path d="M24 30V36C24 37.5913 23.3679 39.1174 22.2426 40.2426C21.1174 41.3679 19.5913 42 18 42C16.4087 42 14.8826 41.3679 13.7574 40.2426C12.6321 39.1174 12 37.5913 12 36C12 34.4087 12.6321 32.8826 13.7574 31.7574C14.8826 30.6321 16.4087 30 18 30M24 30H18M24 30V18M18 30C16.4087 30 14.8826 29.3679 13.7574 28.2426C12.6321 27.1174 12 25.5913 12 24C12 22.4087 12.6321 20.8826 13.7574 19.7574C14.8826 18.6321 16.4087 18 18 18M24 18H18M24 18V6M24 18H30C31.5913 18 33.1174 17.3679 34.2426 16.2426C35.3679 15.1174 36 13.5913 36 12C36 10.4087 35.3679 8.88258 34.2426 7.75736C33.1174 6.63214 31.5913 6 30 6H24M18 18C16.4087 18 14.8826 17.3679 13.7574 16.2426C12.6321 15.1174 12 13.5913 12 12C12 10.4087 12.6321 8.88258 13.7574 7.75736C14.8826 6.63214 16.4087 6 18 6H24" stroke="black" stroke-width="3" stroke-linecap="round" stroke-linejoin="round"/>
</svg>
